# xmcd
#
# Track frame offsets:
#	150
#	91167
#	131210
#	169018
#	205713
#
# Disc length: 3216 seconds
#
# Revision: 1
# Processed by: cddbd v1.5.2PL0 Copyright (c) Steve Scherf et al.
# Submitted via: audiograbber 1.83.01
#
DISCID=3b0c8e05
DTITLE=Grateful Dead - 95-03-17 The Spectrum, Philadelphia PA
DYEAR=1900
DGENRE=
TTITLE0=Space
TTITLE1=All Along The Watchtower
TTITLE2=Standing On The Moon
TTITLE3=Sugar Magnolia
TTITLE4=Lucy In The Sky With Diamonds
EXTD=
EXTT0=
EXTT1=
EXTT2=
EXTT3=
EXTT4=
PLAYORDER=
